# xmcd
#
# Track frame offsets: 
#        150
#        12087
#        28625
#        48875
#        60910
#        75460
#        90160
#        104187
#        117125
#        133062
#
# Disc length: 1948 seconds
#
# Revision: 2
# Processed by: cddbd v1.4PL0 Copyright (c) Steve Scherf et al.
# Submitted via: ExactAudioCopy v0.90b3
#
DISCID=6e079a0a
DTITLE=Larry Gatlin and The Gatlin Brothers - All The Gold
DYEAR=1900
DGENRE=Country
TTITLE0=All The Gold In California
TTITLE1=Do It Again Tonight
TTITLE2=We're Number One
TTITLE3=Broken Lady
TTITLE4=I Just Wish You Were Someone I Love
TTITLE5=You Wouldn't Know Love
TTITLE6=It Don't Get No Better Than This
TTITLE7=The Lady Takes The Cowboy Everytime
TTITLE8=Rain
TTITLE9=Houston (Means I'm One Day Closer To You)
EXTD=
EXTT0=
EXTT1=
EXTT2=
EXTT3=
EXTT4=
EXTT5=
EXTT6=
EXTT7=
EXTT8=
EXTT9=
PLAYORDER=
